<svg xmlns="http://www.w3.org/2000/svg" id="b" width="300" height="161.66" viewBox="0 0 300 161.66"><defs fill="#ffffff"><style>.d{fill:#7c7c7c;}.e{fill:#ffce00;}</style></defs><g id="c"><path class="e" d="m.2,0h52.69c10.02,0,17.93,2.66,23.74,7.98,5.8,5.32,8.71,12.93,8.71,22.82,0,4.68-.99,9.05-2.98,13.09-1.99,4.05-4.81,7.24-8.48,9.58,5.06,2.13,8.78,5.19,11.16,9.18,2.38,3.99,3.57,9.18,3.57,15.56,0,6.81-1.49,12.74-4.47,17.8-2.98,5.06-6.97,8.91-11.98,11.57-5.01,2.66-10.59,3.99-16.74,3.99H.2V0Zm46.88,44.21c7.74,0,11.61-3.88,11.61-11.65,0-4.36-.99-7.37-2.98-9.02-1.99-1.65-5.01-2.47-9.08-2.47h-20.09v23.14h20.54Zm1.64,46.29c4.47,0,7.79-.9,9.97-2.71,2.18-1.81,3.27-5,3.27-9.58s-1.14-7.9-3.42-9.98c-2.28-2.08-5.76-3.11-10.42-3.11h-21.58v25.38h22.18Z" fill="#ffffff"/><path class="e" d="m110.19,100.48c-7.94-8.99-11.91-20.88-11.91-35.67V0h26.34v65.12c0,7.45,1.86,13.09,5.58,16.92s8.86,5.75,15.4,5.75,11.66-1.92,15.33-5.75c3.67-3.83,5.51-9.47,5.51-16.92V0h26.34v64.8c0,14.9-3.94,26.82-11.83,35.75-7.89,8.94-19.67,13.41-35.35,13.41s-27.49-4.49-35.42-13.49Z" fill="#ffffff"/><path class="d" d="m216.61,100.48c-7.94-8.99-11.91-20.88-11.91-35.67V0h26.34v65.12c0,7.45,1.86,13.09,5.58,16.92,3.72,3.83,8.86,5.75,15.4,5.75s11.66-1.92,15.33-5.75c3.67-3.83,5.51-9.47,5.51-16.92V0h26.34v64.8c0,14.9-3.94,26.82-11.83,35.75-7.89,8.94-19.67,13.41-35.35,13.41s-27.49-4.49-35.42-13.49Z" fill="#ffffff"/><path d="m0,123.76h9.34c1.8,0,3.2.47,4.21,1.4,1,.93,1.51,2.29,1.51,4.08,0,.95-.22,1.81-.66,2.58-.44.77-1.03,1.36-1.76,1.76,2.04.7,3.07,2.26,3.07,4.69,0,1.21-.26,2.25-.79,3.13-.53.88-1.23,1.56-2.13,2.03s-1.88.7-2.97.7H0v-20.38Zm8.78,8.48c.81,0,1.45-.23,1.94-.69.49-.46.73-1.15.73-2.08,0-1.07-.24-1.8-.72-2.2-.48-.4-1.19-.6-2.12-.6H3.55v5.57h5.23Zm.23,8.98c.99,0,1.76-.21,2.29-.64.53-.43.8-1.19.8-2.27s-.28-1.88-.84-2.36c-.56-.49-1.38-.73-2.45-.73H3.55v6.01h5.46Z" fill="#ffffff"/><path d="m20.5,142.32c-1.42-1.51-2.12-3.54-2.12-6.11v-12.45h3.57v12.51c0,1.61.44,2.84,1.31,3.69s2.05,1.27,3.53,1.27,2.63-.42,3.5-1.27,1.31-2.07,1.31-3.69v-12.51h3.57v12.45c0,2.57-.7,4.6-2.11,6.11-1.41,1.51-3.5,2.26-6.27,2.26s-4.87-.75-6.29-2.26Z" fill="#ffffff"/><path d="m38.41,123.76h8.22c2.18,0,3.86.55,5.04,1.66,1.18,1.11,1.77,2.71,1.77,4.81,0,1.5-.36,2.77-1.07,3.82s-1.73,1.8-3.04,2.24l4,7.84h-3.66l-3.8-7.46h-3.88v7.46h-3.57v-20.38Zm7.57,9.85c1.16,0,2.1-.28,2.81-.85.71-.56,1.07-1.41,1.07-2.54,0-2.27-1.29-3.41-3.88-3.41h-4v6.79h4Z" fill="#ffffff"/><path d="m62.3,123.76h3.46l7.85,20.38h-3.63l-1.8-4.69h-8.33l-1.77,4.69h-3.66l7.88-20.38Zm4.9,12.62l-3.18-8.66-3.18,8.66h6.36Z" fill="#ffffff"/><path d="m76.43,123.76h7.88c2.16,0,3.89.59,5.19,1.78,1.3,1.19,1.96,2.81,1.96,4.87s-.65,3.77-1.94,4.88c-1.29,1.12-3.04,1.68-5.23,1.68h-4.28v7.17h-3.57v-20.38Zm7.43,10.15c2.68,0,4.02-1.17,4.02-3.5s-1.34-3.59-4.02-3.59h-3.86v7.08h3.86Z" fill="#ffffff"/><path d="m93.71,123.76h3.57v8.46h9.46v-8.46h3.55v20.38h-3.55v-8.86h-9.46v8.86h-3.57v-20.38Z" fill="#ffffff"/><path d="m120.98,123.76h3.46l7.85,20.38h-3.63l-1.8-4.69h-8.33l-1.77,4.69h-3.66l7.88-20.38Zm4.9,12.62l-3.18-8.66-3.18,8.66h6.36Z" fill="#ffffff"/><path d="m142.37,142.43c-1.27-1.28-1.9-3.09-1.9-5.43v-13.31h1.48v13.54c0,1.95.54,3.4,1.62,4.34s2.55,1.42,4.41,1.42,3.34-.47,4.43-1.42,1.63-2.39,1.63-4.34v-13.54h1.48v13.31c0,2.33-.64,4.14-1.91,5.43s-3.15,1.92-5.63,1.92-4.35-.64-5.61-1.92Z" fill="#ffffff"/><path d="m160.83,123.7h1.4l11.65,17.56v-17.56h1.48v20.23h-1.37l-11.67-17.59v17.59h-1.48v-20.23Z" fill="#ffffff"/><path d="m180.8,123.7h1.48v20.23h-1.48v-20.23Z" fill="#ffffff"/><path d="m187.19,123.7h1.54l6.9,18.06,6.93-18.06h1.54l-7.79,20.23h-1.31l-7.79-20.23Z" fill="#ffffff"/><path d="m208.98,123.7h12.23v1.3h-10.75v8.16h8.13v1.3h-8.13v8.16h10.75v1.3h-12.23v-20.23Z" fill="#ffffff"/><path d="m225.96,123.7h7.23c3.95,0,5.92,1.85,5.92,5.56,0,1.49-.44,2.72-1.31,3.7-.88.98-2.11,1.56-3.72,1.74l5,9.23h-1.54l-4.97-9.2h-5.14v9.2h-1.48v-20.23Zm7.12,9.72c1.43,0,2.56-.36,3.37-1.07.81-.71,1.21-1.75,1.21-3.1,0-1.54-.4-2.64-1.19-3.28-.79-.65-1.91-.97-3.37-.97h-5.67v8.42h5.64Z" fill="#ffffff"/><path d="m245.9,144.1c-1.01-.17-1.82-.41-2.46-.72v-1.45c1.62.71,3.44,1.07,5.47,1.07,1.82,0,3.17-.32,4.04-.97.87-.65,1.3-1.62,1.3-2.91,0-.87-.18-1.57-.53-2.11-.35-.54-.88-1-1.58-1.39-.7-.39-1.77-.87-3.23-1.45-1.86-.73-3.2-1.54-4.02-2.43-.82-.89-1.23-2.04-1.23-3.44,0-1,.26-1.89.77-2.65.51-.76,1.23-1.35,2.16-1.76.93-.41,2-.62,3.21-.62.97,0,1.85.08,2.65.23.8.15,1.6.4,2.4.75v1.39c-1.58-.68-3.22-1.01-4.92-1.01-1.55,0-2.74.33-3.58,1-.84.67-1.26,1.56-1.26,2.68,0,.75.16,1.4.48,1.94.32.54.82,1.03,1.52,1.48.7.44,1.68.92,2.95,1.42,1.38.54,2.44,1.03,3.2,1.48.75.44,1.35,1.02,1.79,1.74.44.71.66,1.64.66,2.78,0,1.68-.57,2.97-1.7,3.88-1.14.91-2.81,1.36-5.03,1.36-1.04,0-2.07-.09-3.07-.26Z" fill="#ffffff"/><path d="m260.59,123.7h1.48v20.23h-1.48v-20.23Z" fill="#ffffff"/><path d="m272.88,125h-6.45v-1.3h14.38v1.3h-6.45v18.92h-1.48v-18.92Z" fill="#ffffff"/><path d="m291.4,136.25l-7.09-12.56h1.54l6.31,11.2,6.31-11.2h1.54l-7.12,12.56v7.67h-1.48v-7.67Z" fill="#ffffff"/><path d="m139.5,150.69h2.11l1.65,6.2,1.63-6.2h1.55l1.57,6.2,1.65-6.2h2.1l-2.59,9.59h-1.89l-1.65-6.07-1.64,6.07h-1.9l-2.59-9.59Z" fill="#ffffff"/><path d="m153.87,150.69h2.01v9.59h-2.01v-9.59Z" fill="#ffffff"/><path d="m159.35,160.31c-.55-.11-1.01-.26-1.36-.44v-1.84c.47.24.95.42,1.45.53s.98.18,1.44.18c.51,0,.9-.09,1.16-.27.26-.18.4-.44.4-.77,0-.24-.07-.44-.2-.6-.13-.16-.32-.31-.57-.45-.25-.13-.64-.31-1.16-.53-.86-.37-1.49-.77-1.88-1.23-.39-.45-.58-1.01-.58-1.68,0-.54.14-1.02.42-1.43s.68-.74,1.19-.97c.51-.23,1.1-.34,1.77-.34.55,0,1.03.05,1.45.14s.84.23,1.24.42v1.78c-.77-.4-1.55-.6-2.32-.6-.49,0-.88.09-1.16.27-.28.18-.42.43-.42.76,0,.24.07.43.2.59s.32.29.56.41c.24.12.62.29,1.16.52.62.27,1.11.54,1.47.79.35.25.61.55.78.89s.25.77.25,1.27c0,.87-.3,1.55-.9,2.03-.6.49-1.5.73-2.7.73-.56,0-1.12-.06-1.68-.16Z" fill="#ffffff"/><path d="m166.75,150.69h3.21c1,0,1.88.19,2.63.58s1.33.93,1.73,1.65.61,1.55.61,2.52c0,1.59-.45,2.8-1.34,3.61-.89.82-2.14,1.23-3.73,1.23h-3.1v-9.59Zm3.21,7.84c.94,0,1.66-.27,2.17-.82s.75-1.31.75-2.28c0-.58-.11-1.09-.33-1.55-.22-.46-.54-.81-.96-1.07-.42-.26-.92-.38-1.49-.38h-1.33v6.1h1.2Z" fill="#ffffff"/><path d="m179.19,159.85c-.75-.42-1.35-1.01-1.78-1.76-.43-.75-.65-1.62-.65-2.6s.22-1.85.65-2.61c.43-.76,1.02-1.35,1.78-1.77.75-.42,1.59-.63,2.52-.63s1.76.21,2.5.63,1.33,1.01,1.76,1.77c.43.76.65,1.63.65,2.61s-.22,1.84-.65,2.6c-.43.75-1.02,1.34-1.76,1.76s-1.58.63-2.5.63-1.76-.21-2.52-.63Zm3.96-1.67c.44-.25.78-.61,1.04-1.07.26-.46.38-1,.38-1.62s-.13-1.15-.38-1.61c-.25-.46-.59-.82-1.03-1.07s-.92-.38-1.46-.38-1.04.13-1.47.38c-.44.25-.78.61-1.04,1.07s-.38,1-.38,1.61.13,1.16.38,1.62.6.82,1.04,1.07.93.38,1.47.38,1.01-.13,1.45-.38Z" fill="#ffffff"/><path d="m188.72,150.69h1.98l2.84,6.42,2.85-6.42h1.97v9.59h-1.92v-5.44l-2.44,5.44h-.93l-2.43-5.44v5.44h-1.93v-9.59Z" fill="#ffffff"/><path d="m208.51,159.85c-.75-.42-1.35-1.01-1.78-1.76-.43-.75-.65-1.62-.65-2.6s.22-1.85.65-2.61c.43-.76,1.02-1.35,1.78-1.77.75-.42,1.59-.63,2.52-.63s1.76.21,2.5.63,1.33,1.01,1.76,1.77c.43.76.65,1.63.65,2.61s-.22,1.84-.65,2.6c-.43.75-1.02,1.34-1.76,1.76s-1.58.63-2.5.63-1.76-.21-2.52-.63Zm3.96-1.67c.44-.25.78-.61,1.04-1.07.26-.46.38-1,.38-1.62s-.13-1.15-.38-1.61c-.25-.46-.59-.82-1.03-1.07s-.92-.38-1.46-.38-1.04.13-1.47.38c-.44.25-.78.61-1.04,1.07s-.38,1-.38,1.61.13,1.16.38,1.62.6.82,1.04,1.07.93.38,1.47.38,1.01-.13,1.45-.38Z" fill="#ffffff"/><path d="m218.04,150.69h6.41v1.76h-4.4v2.24h3.24v1.6h-3.24v3.99h-2.01v-9.59Z" fill="#ffffff"/><path d="m234.1,152.43h-2.69v-1.74h7.4v1.74h-2.69v7.84h-2.01v-7.84Z" fill="#ffffff"/><path d="m240.68,150.69h2.01v3.84h4.03v-3.84h2.01v9.59h-2.01v-4.02h-4.03v4.02h-2.01v-9.59Z" fill="#ffffff"/><path d="m251.09,150.69h6.41v1.74h-4.4v2.22h3.24v1.67h-3.24v2.21h4.4v1.74h-6.41v-9.59Z" fill="#ffffff"/><path d="m265.07,150.69h6.41v1.74h-4.4v2.22h3.24v1.67h-3.24v2.21h4.4v1.74h-6.41v-9.59Z" fill="#ffffff"/><path d="m276.88,150.69h1.97l3.68,9.59h-2.05l-.79-2.08h-3.66l-.79,2.08h-2.06l3.7-9.59Zm2.28,5.84l-1.31-3.65-1.31,3.65h2.62Z" fill="#ffffff"/><path d="m285.14,160.31c-.55-.11-1.01-.26-1.36-.44v-1.84c.47.24.95.42,1.45.53s.98.18,1.44.18c.51,0,.9-.09,1.16-.27.26-.18.4-.44.4-.77,0-.24-.07-.44-.2-.6-.13-.16-.32-.31-.57-.45-.25-.13-.64-.31-1.16-.53-.86-.37-1.49-.77-1.88-1.23-.39-.45-.58-1.01-.58-1.68,0-.54.14-1.02.42-1.43s.68-.74,1.19-.97c.51-.23,1.1-.34,1.77-.34.55,0,1.03.05,1.45.14s.84.23,1.24.42v1.78c-.77-.4-1.55-.6-2.32-.6-.49,0-.88.09-1.16.27-.28.18-.42.43-.42.76,0,.24.07.43.2.59s.32.29.56.41c.24.12.62.29,1.16.52.62.27,1.11.54,1.47.79.35.25.61.55.78.89s.25.77.25,1.27c0,.87-.3,1.55-.9,2.03-.6.49-1.5.73-2.7.73-.56,0-1.12-.06-1.68-.16Z" fill="#ffffff"/><path d="m294.41,152.43h-2.69v-1.74h7.4v1.74h-2.69v7.84h-2.01v-7.84Z" fill="#ffffff"/><rect class="e" x=".2" y="149.49" width="132.65" height="12.16" fill="#ffffff"/></g></svg>